<svg width="100" height="48" viewBox="0 0 100 48" fill="none" xmlns="http://www.w3.org/2000/svg">
<path d="M39.4961 28.0097H42.539C42.5589 28.7058 42.8175 29.2527 43.3147 29.6505C43.8119 30.0482 44.498 30.2471 45.3731 30.2471C46.288 30.2471 46.994 30.0681 47.4913 29.7101C47.9885 29.3521 48.2371 28.8848 48.2371 28.308C48.2371 27.8705 48.1078 27.5125 47.8492 27.234C47.5907 26.9357 47.1034 26.697 46.3874 26.518L43.7622 25.9214C42.4694 25.6032 41.4949 25.1159 40.8386 24.4596C40.2021 23.8033 39.8839 22.9083 39.8839 21.7746C39.8839 20.8399 40.1226 20.0443 40.5999 19.388C41.0971 18.7118 41.7733 18.1947 42.6285 17.8367C43.4837 17.4589 44.4583 17.2699 45.5521 17.2699C46.646 17.2699 47.6006 17.4688 48.4161 17.8666C49.2315 18.2444 49.8679 18.7814 50.3254 19.4775C50.7828 20.1736 51.0115 20.999 51.0115 21.9536H47.9686C47.9487 21.2575 47.72 20.7106 47.2824 20.3128C46.8449 19.9151 46.2283 19.7162 45.4328 19.7162C44.6571 19.7162 44.0505 19.8952 43.613 20.2532C43.1755 20.5913 42.9567 21.0587 42.9567 21.6553C42.9567 22.5503 43.6229 23.1668 44.9555 23.5049L47.5807 24.1016C48.8138 24.38 49.7386 24.8375 50.3552 25.4739C50.9717 26.0904 51.28 26.9556 51.28 28.0693C51.28 29.0041 51.0214 29.8295 50.5043 30.5455C50.0071 31.2614 49.311 31.8084 48.4161 32.1862C47.5211 32.5641 46.4769 32.7531 45.2836 32.7531C43.5136 32.7531 42.1015 32.3155 41.0474 31.4404C40.0132 30.5653 39.4961 29.4218 39.4961 28.0097Z" fill="#030712"/>
<path d="M52.5448 25.0264C52.5448 23.495 52.873 22.1525 53.5293 20.999C54.2055 19.8455 55.1303 18.9405 56.3037 18.2842C57.4771 17.6279 58.8097 17.2997 60.3013 17.2997C61.7929 17.2997 63.1155 17.6279 64.2691 18.2842C65.4226 18.9405 66.3375 19.8455 67.0137 20.999C67.6899 22.1525 68.028 23.495 68.028 25.0264C68.028 26.5379 67.6899 27.8705 67.0137 29.024C66.3375 30.1775 65.4226 31.0824 64.2691 31.7388C63.1155 32.3951 61.7929 32.7232 60.3013 32.7232C58.8097 32.7232 57.4771 32.3951 56.3037 31.7388C55.1303 31.0824 54.2055 30.1775 53.5293 29.024C52.873 27.8705 52.5448 26.5379 52.5448 25.0264ZM55.7667 24.9966C55.7667 25.9512 55.9557 26.7965 56.3336 27.5324C56.7313 28.2483 57.2683 28.8152 57.9445 29.2328C58.6207 29.6306 59.4063 29.8295 60.3013 29.8295C61.1764 29.8295 61.952 29.6306 62.6283 29.2328C63.3045 28.8152 63.8315 28.2483 64.2094 27.5324C64.5873 26.7965 64.7762 25.9512 64.7762 24.9966C64.7762 24.0419 64.5873 23.2066 64.2094 22.4906C63.8315 21.7746 63.3045 21.2178 62.6283 20.82C61.952 20.4023 61.1764 20.1935 60.3013 20.1935C59.4063 20.1935 58.6207 20.4023 57.9445 20.82C57.2683 21.2178 56.7313 21.7746 56.3336 22.4906C55.9557 23.2066 55.7667 24.0419 55.7667 24.9966Z" fill="#030712"/>
<path d="M69.305 17.7174H78.1355V20.4023H69.305V17.7174ZM78.1951 10.4084V13.1828C78.0161 13.1828 77.8172 13.1828 77.5985 13.1828C77.3797 13.1828 77.1609 13.1828 76.9421 13.1828C76.0273 13.1828 75.4107 13.4016 75.0925 13.8391C74.7942 14.2767 74.645 14.8733 74.645 15.6291V32.3652H71.4231V15.6291C71.4231 14.3761 71.6319 13.3618 72.0496 12.5862C72.4871 11.7906 73.0738 11.2139 73.8097 10.8559C74.5655 10.478 75.4306 10.2891 76.4052 10.2891C76.6836 10.2891 76.9819 10.299 77.3001 10.3189C77.6184 10.3388 77.9167 10.3686 78.1951 10.4084Z" fill="#030712"/>
<path d="M79.9368 17.7174H88.8568V20.4023H79.9368V17.7174ZM85.9929 32.3652H82.8008V13.1232H85.9929V32.3652Z" fill="#030712"/>
<path d="M99.427 17.6279V20.5813H98.1442C96.8116 20.5813 95.7575 20.9493 94.9819 21.6851C94.2261 22.421 93.8483 23.5049 93.8483 24.9369V32.3652H90.6562V17.7174H93.6693L93.9378 20.7305H93.6394C93.8383 19.756 94.3057 18.9604 95.0416 18.3439C95.7774 17.7273 96.7321 17.4191 97.9055 17.4191C98.1442 17.4191 98.3828 17.439 98.6215 17.4787C98.88 17.4986 99.1485 17.5483 99.427 17.6279Z" fill="#030712"/>
<path d="M17.296 30.5432C17.296 28.7987 17.296 27.9264 17.6355 27.2601C17.9341 26.674 18.4107 26.1974 18.9968 25.8988C19.6631 25.5593 20.5354 25.5593 22.2799 25.5593H25.512C27.2566 25.5593 28.1289 25.5593 28.7952 25.8988C29.3813 26.1974 29.8578 26.674 30.1565 27.2601C30.496 27.9264 30.496 28.7987 30.496 30.5432V33.7754C30.496 35.5199 30.496 36.3922 30.1565 37.0585C29.8578 37.6446 29.3813 38.1211 28.7952 38.4198C28.1289 38.7593 27.2566 38.7593 25.512 38.7593H22.2799C20.5354 38.7593 19.6631 38.7593 18.9968 38.4198C18.4107 38.1211 17.9341 37.6446 17.6355 37.0585C17.296 36.3922 17.296 35.5199 17.296 33.7754V30.5432Z" fill="#386AF5"/>
<path d="M0.974243 32.1593C0.974243 28.5142 3.92916 25.5593 7.57424 25.5593C11.2193 25.5593 14.1742 28.5142 14.1742 32.1593C14.1742 35.8044 11.2193 38.7593 7.57424 38.7593C3.92916 38.7593 0.974243 35.8044 0.974243 32.1593Z" fill="#F53878"/>
<path d="M0.974243 14.2242C0.974243 12.4796 0.974243 11.6074 1.31375 10.941C1.61239 10.3549 2.08892 9.87839 2.67504 9.57974C3.34137 9.24023 4.21363 9.24023 5.95817 9.24023H25.512C27.2566 9.24023 28.1289 9.24023 28.7952 9.57974C29.3813 9.87839 29.8578 10.3549 30.1565 10.941C30.496 11.6074 30.496 12.4796 30.496 14.2242V17.4563C30.496 19.2008 30.496 20.0731 30.1565 20.7394C29.8578 21.3256 29.3813 21.8021 28.7952 22.1007C28.1289 22.4402 27.2566 22.4402 25.512 22.4402H5.95817C4.21363 22.4402 3.34137 22.4402 2.67504 22.1007C2.08892 21.8021 1.61239 21.3256 1.31375 20.7394C0.974243 20.0731 0.974243 19.2008 0.974243 17.4563V14.2242Z" fill="#FCB500"/>
</svg>
